<svg xmlns="http://www.w3.org/2000/svg" width="16" height="16" viewBox="0 0 16 16"><defs><style>.a{opacity:0.75;}.b{fill:#384355;}</style></defs><g class="a" transform="translate(-6 -6)"><path class="b" d="M6.667,7.239H7.78l1.669,7a2.215,2.215,0,0,0-1.361,2.056,2.186,2.186,0,0,0,2.154,2.213h8.84a.621.621,0,1,0,0-1.239h-8.84a.988.988,0,0,1,0-1.948h8.84a.666.666,0,0,0,.627-.41L21.961,9.1a.583.583,0,0,0-.082-.566.683.683,0,0,0-.546-.263H9.393L8.966,6.485A.657.657,0,0,0,8.315,6H6.667a.621.621,0,1,0,0,1.239ZM20.384,9.513l-1.771,4.567H10.777L9.688,9.513Z" transform="translate(0)"/><path class="b" d="M19.261,50a.917.917,0,0,0,0,1.833h1.164a.917.917,0,1,0,0-1.833Z" transform="translate(-8.473 -29.833)"/><path class="b" d="M37.713,50a.917.917,0,0,0,0,1.833h1.164a.917.917,0,1,0,0-1.833Z" transform="translate(-21.138 -29.833)"/></g></svg>