<svg xmlns="http://www.w3.org/2000/svg" width="12" height="9.6" viewBox="0 0 12 9.6">
  <g id="Icon_ionic-ios-options" data-name="Icon ionic-ios-options" transform="translate(-3.375 -5.625)">
    <path id="Path_205" data-name="Path 205" d="M10.624,25.429a1.165,1.165,0,0,1,2.117,0h2.172a.458.458,0,0,1,.462.453h0a.458.458,0,0,1-.462.453H12.741a1.165,1.165,0,0,1-2.117,0H3.837a.458.458,0,0,1-.462-.453h0a.458.458,0,0,1,.462-.453Z" transform="translate(0 -11.788)" fill="#384355"/>
    <path id="Path_206" data-name="Path 206" d="M6.009,15.866a1.165,1.165,0,0,1,2.117,0h6.788a.458.458,0,0,1,.462.453h0a.458.458,0,0,1-.462.453H8.126a1.165,1.165,0,0,1-2.117,0H3.837a.458.458,0,0,1-.462-.453h0a.458.458,0,0,1,.462-.453Z" transform="translate(0 -5.894)" fill="#384355"/>
    <path id="Path_207" data-name="Path 207" d="M10.624,6.3a1.165,1.165,0,0,1,2.117,0h2.172a.458.458,0,0,1,.462.453h0a.458.458,0,0,1-.462.453H12.741a1.165,1.165,0,0,1-2.117,0H3.837a.458.458,0,0,1-.462-.453h0A.458.458,0,0,1,3.837,6.3Z" transform="translate(0)" fill="#384355"/>
  </g>
</svg>
