<svg xmlns="http://www.w3.org/2000/svg" width="18" height="12" viewBox="0 0 18 12"><path d="M32.092,27.467l-3.256-2.842a.5.5,0,0,0-.122-.081h0a.483.483,0,0,0-.168-.038H26.388V21.379a.524.524,0,0,0-.508-.539H14.788a.524.524,0,0,0-.508.539v9.35a.524.524,0,0,0,.508.539h1.686a2,2,0,0,0,3.911,0h6.247a2,2,0,0,0,3.911,0h1.229a.524.524,0,0,0,.508-.539V27.882A.552.552,0,0,0,32.092,27.467ZM28.029,25.58v1.5h-1.64v-1.5Zm-12.7-3.661H25.372V30.19H20.4a2.208,2.208,0,0,0-.076-.232.118.118,0,0,0-.03-.092,2.2,2.2,0,0,0-.173-.34l-.056-.075a2.134,2.134,0,0,0-.173-.221l-.1-.092a2.06,2.06,0,0,0-.183-.156L19.5,28.9a2,2,0,0,0-.2-.119l-.127-.059a1.946,1.946,0,0,0-.244-.081l-.117-.032a1.8,1.8,0,0,0-.762,0l-.117.032a1.946,1.946,0,0,0-.244.081l-.127.059a2,2,0,0,0-.208.119l-.112.081a2.061,2.061,0,0,0-.188.162l-.091.086a2.135,2.135,0,0,0-.188.243l-.041.054a2.2,2.2,0,0,0-.178.345.139.139,0,0,1-.025.081,2.25,2.25,0,0,0-.076.237H15.3ZM18.465,31.8a1.08,1.08,0,1,1,1.016-1.078,1.112,1.112,0,0,1-.31.776.984.984,0,0,1-.741.3Zm10.158,0a1.08,1.08,0,1,1,1.016-1.078,1.112,1.112,0,0,1-.31.776.984.984,0,0,1-.741.3ZM31.3,30.179h-.742a2.208,2.208,0,0,0-.076-.232.118.118,0,0,0-.03-.092,2.2,2.2,0,0,0-.173-.34l-.056-.075a2.134,2.134,0,0,0-.173-.221l-.1-.092a2.06,2.06,0,0,0-.183-.156l-.117-.081a2,2,0,0,0-.2-.119l-.127-.059a1.946,1.946,0,0,0-.244-.081l-.117-.032a1.8,1.8,0,0,0-.762,0l-.117.032a1.946,1.946,0,0,0-.244.081l-.127.059a2,2,0,0,0-.208.119l-.112.081a2.06,2.06,0,0,0-.188.162l-.091.086a2.136,2.136,0,0,0-.188.243l-.041.054a2.2,2.2,0,0,0-.178.345.139.139,0,0,1-.025.081,2.249,2.249,0,0,0-.076.237h-.229V28.162h2.128a.524.524,0,0,0,.508-.539v-1.44l2.24,1.957Z" transform="translate(-14.28 -20.84)"/></svg>